<svg width="24" height="24" viewBox="0 0 24 24" fill="none" xmlns="http://www.w3.org/2000/svg">
<g clip-path="url(#clip0_47_57)">
<path d="M11.9999 2C8.12988 2 4.99988 5.13 4.99988 9C4.99988 14.25 11.9999 22 11.9999 22C11.9999 22 18.9999 14.25 18.9999 9C18.9999 5.13 15.8699 2 11.9999 2ZM6.99988 9C6.99988 6.24 9.23988 4 11.9999 4C14.7599 4 16.9999 6.24 16.9999 9C16.9999 11.88 14.1199 16.19 11.9999 18.88C9.91988 16.21 6.99988 11.85 6.99988 9Z" fill="#FFD600"/>
<path d="M11.9999 11.5C13.3806 11.5 14.4999 10.3807 14.4999 9C14.4999 7.61929 13.3806 6.5 11.9999 6.5C10.6192 6.5 9.49988 7.61929 9.49988 9C9.49988 10.3807 10.6192 11.5 11.9999 11.5Z" fill="#FFD600"/>
</g>
<defs>
<clipPath id="clip0_47_57">
<rect width="24" height="24" fill="white"/>
</clipPath>
</defs>
</svg>
